<svg width="84" height="22" viewBox="0 0 84 22" fill="none" xmlns="http://www.w3.org/2000/svg">
<path d="M36.9365 10.0273C36.9365 11.071 36.5947 11.8708 35.9111 12.4268C35.2275 12.9827 34.2546 13.2607 32.9922 13.2607H31.9531V17H30.3193V7.00586H33.1973C34.446 7.00586 35.3802 7.26107 36 7.77148C36.6243 8.2819 36.9365 9.03385 36.9365 10.0273ZM31.9531 11.8867H32.8213C33.6598 11.8867 34.2751 11.7409 34.667 11.4492C35.0589 11.1576 35.2549 10.7018 35.2549 10.082C35.2549 9.50781 35.0794 9.07943 34.7285 8.79688C34.3776 8.51432 33.8307 8.37305 33.0879 8.37305H31.9531V11.8867ZM42.0635 17.1367C40.8877 17.1367 39.9671 16.7949 39.3018 16.1113C38.641 15.4232 38.3105 14.4775 38.3105 13.2744C38.3105 12.0394 38.6182 11.0687 39.2334 10.3623C39.8486 9.65592 40.694 9.30273 41.7695 9.30273C42.7676 9.30273 43.556 9.60579 44.1348 10.2119C44.7135 10.818 45.0029 11.652 45.0029 12.7139V13.582H39.9648C39.9876 14.3158 40.1859 14.8809 40.5596 15.2773C40.9333 15.6693 41.4596 15.8652 42.1387 15.8652C42.5853 15.8652 43 15.8242 43.3828 15.7422C43.7702 15.6556 44.1849 15.5143 44.627 15.3184V16.624C44.235 16.8109 43.8385 16.943 43.4375 17.0205C43.0365 17.098 42.5785 17.1367 42.0635 17.1367ZM41.7695 10.5195C41.2591 10.5195 40.849 10.6813 40.5391 11.0049C40.2337 11.3285 40.0514 11.8001 39.9922 12.4199H43.4238C43.4147 11.7956 43.2643 11.3239 42.9727 11.0049C42.681 10.6813 42.2799 10.5195 41.7695 10.5195ZM53.0283 17L52.0508 13.4727C51.9323 13.099 51.7181 12.2308 51.4082 10.8682H51.3467C51.0824 12.0986 50.8727 12.9714 50.7178 13.4863L49.7129 17H47.9355L45.8164 9.43945H47.457L48.4209 13.165C48.6396 14.0856 48.7946 14.874 48.8857 15.5303H48.9268C48.9723 15.1976 49.0407 14.8171 49.1318 14.3887C49.2275 13.9557 49.3096 13.6322 49.3779 13.418L50.5264 9.43945H52.29L53.4043 13.418C53.4727 13.6413 53.557 13.9831 53.6572 14.4434C53.762 14.9036 53.8236 15.2614 53.8418 15.5166H53.8965C53.9648 14.9561 54.1243 14.1722 54.375 13.165L55.3525 9.43945H56.9658L54.833 17H53.0283ZM64.9775 13.2061C64.9775 14.4411 64.6608 15.4049 64.0273 16.0977C63.3939 16.7904 62.512 17.1367 61.3818 17.1367C60.6755 17.1367 60.0511 16.9772 59.5088 16.6582C58.9665 16.3392 58.5495 15.8812 58.2578 15.2842C57.9661 14.6872 57.8203 13.9945 57.8203 13.2061C57.8203 11.9801 58.1348 11.0231 58.7637 10.335C59.3926 9.64681 60.279 9.30273 61.4229 9.30273C62.5166 9.30273 63.3825 9.65592 64.0205 10.3623C64.6585 11.0641 64.9775 12.012 64.9775 13.2061ZM59.4746 13.2061C59.4746 14.9515 60.1195 15.8242 61.4092 15.8242C62.6852 15.8242 63.3232 14.9515 63.3232 13.2061C63.3232 11.4788 62.6807 10.6152 61.3955 10.6152C60.721 10.6152 60.2311 10.8385 59.9258 11.2852C59.625 11.7318 59.4746 12.3721 59.4746 13.2061ZM70.665 9.30273C70.9886 9.30273 71.2552 9.32552 71.4648 9.37109L71.3076 10.8682C71.0798 10.8135 70.8428 10.7861 70.5967 10.7861C69.9541 10.7861 69.4323 10.9958 69.0312 11.415C68.6348 11.8343 68.4365 12.3789 68.4365 13.0488V17H66.8301V9.43945H68.0879L68.2998 10.7725H68.3818C68.6325 10.3213 68.9583 9.96354 69.3594 9.69922C69.765 9.4349 70.2002 9.30273 70.665 9.30273ZM74.4795 17H72.873V6.36328H74.4795V17ZM79.333 17.1367C78.3896 17.1367 77.6536 16.7949 77.125 16.1113C76.5964 15.4277 76.332 14.4684 76.332 13.2334C76.332 11.9938 76.5986 11.0299 77.1318 10.3418C77.6696 9.64909 78.4124 9.30273 79.3604 9.30273C80.3538 9.30273 81.1104 9.6696 81.6299 10.4033H81.7119C81.6344 9.861 81.5957 9.43262 81.5957 9.11816V6.36328H83.209V17H81.9512L81.6709 16.0088H81.5957C81.0807 16.7607 80.3265 17.1367 79.333 17.1367ZM79.7637 15.8379C80.4245 15.8379 80.9053 15.6533 81.2061 15.2842C81.5068 14.9105 81.6618 14.3066 81.6709 13.4727V13.2471C81.6709 12.2946 81.516 11.6178 81.2061 11.2168C80.8962 10.8158 80.4108 10.6152 79.75 10.6152C79.1849 10.6152 78.7497 10.8454 78.4443 11.3057C78.139 11.7614 77.9863 12.4131 77.9863 13.2607C77.9863 14.0993 78.1344 14.7396 78.4307 15.1816C78.7269 15.6191 79.1712 15.8379 79.7637 15.8379Z" fill="white"/>
<path d="M11 1L1 6L11 11L21 6L11 1Z" stroke="white" stroke-width="2" stroke-linecap="round" stroke-linejoin="round"/>
<path d="M1 16L11 21L21 16" stroke="white" stroke-width="2" stroke-linecap="round" stroke-linejoin="round"/>
<path d="M1 11L11 16L21 11" stroke="white" stroke-width="2" stroke-linecap="round" stroke-linejoin="round"/>
</svg>
